<svg xmlns="http://www.w3.org/2000/svg" xmlns:xlink="http://www.w3.org/1999/xlink" width="1080" zoomAndPan="magnify" viewBox="0 0 810 809.999993" height="1080" preserveAspectRatio="xMidYMid meet" version="1.0"><rect x="-81" width="972" fill="#ffffff" y="-80.999999" height="971.999992" fill-opacity="1"/><rect x="-81" width="972" fill="#ffffff" y="-80.999999" height="971.999992" fill-opacity="1"/><path fill="#86a5c4" d="M 287.296875 60.867188 L 350.488281 84.535156 C 358.136719 87.390625 365.960938 89.644531 373.957031 91.289062 C 381.957031 92.933594 390.03125 93.953125 398.1875 94.347656 C 406.34375 94.742188 414.480469 94.507812 422.597656 93.644531 C 430.71875 92.777344 438.722656 91.292969 446.609375 89.191406 L 570.3125 56.375 C 687.222656 25.351562 794.351562 131.574219 764.28125 248.738281 L 730.417969 380.910156 C 727.394531 392.675781 725.75 404.625 725.480469 416.769531 C 725.214844 428.910156 726.332031 440.921875 728.835938 452.804688 L 755.320312 578.929688 C 779.875 695.789062 671.160156 796.730469 556.441406 763.589844 L 432.878906 727.886719 C 421.128906 724.496094 409.148438 722.496094 396.933594 721.878906 C 384.71875 721.261719 372.597656 722.046875 360.566406 724.230469 L 229.902344 748.019531 C 111.53125 769.570312 13.3125 656.433594 51.296875 542.273438 L 96.660156 405.886719 C 99.300781 397.941406 101.296875 389.835938 102.652344 381.574219 C 104.007812 373.316406 104.707031 364.996094 104.742188 356.625 C 104.78125 348.253906 104.160156 339.929688 102.878906 331.65625 C 101.59375 323.382812 99.671875 315.261719 97.101562 307.296875 L 81.089844 257.675781 C 40.449219 131.714844 163.269531 14.433594 287.296875 60.867188 Z M 287.296875 60.867188 " fill-opacity="1" fill-rule="nonzero"/></svg>