<svg xmlns="http://www.w3.org/2000/svg" xmlns:xlink="http://www.w3.org/1999/xlink" width="1080" zoomAndPan="magnify" viewBox="0 0 810 809.999993" height="1080" preserveAspectRatio="xMidYMid meet" version="1.0"><defs><clipPath id="ebd80aed4f"><path d="M 21.066406 152.742188 L 789 152.742188 L 789 751.992188 L 21.066406 751.992188 Z M 21.066406 152.742188 " clip-rule="nonzero"/></clipPath></defs><rect x="-81" width="972" fill="#ffffff" y="-80.999999" height="971.999992" fill-opacity="1"/><rect x="-81" width="972" fill="#ffffff" y="-80.999999" height="971.999992" fill-opacity="1"/><rect x="-81" width="972" fill="#ffffff" y="-80.999999" height="971.999992" fill-opacity="1"/><g clip-path="url(#ebd80aed4f)"><path fill="#2a334f" d="M 634.828125 175.75 C 531.824219 110.722656 508.320312 202.261719 415.316406 225.773438 C 318.308594 250.78125 218.304688 172.75 127.800781 233.777344 C -90.214844 380.335938 60.296875 685.464844 267.308594 738.488281 C 308.808594 748.992188 364.8125 761.996094 405.316406 738.488281 C 458.820312 707.972656 442.816406 638.945312 468.820312 620.9375 C 522.824219 583.921875 566.324219 623.9375 632.828125 593.925781 C 677.832031 573.917969 643.828125 521.894531 664.832031 498.386719 C 696.832031 462.871094 749.335938 481.878906 775.835938 431.359375 C 827.839844 334.316406 711.332031 223.773438 634.828125 175.75 Z M 634.828125 175.75 " fill-opacity="1" fill-rule="nonzero"/></g></svg>